<mxfile host="65bd71144e">
    <diagram id="5hCwmCQ1yURicK9kzqUY" name="第 1 页">
        <mxGraphModel dx="3225" dy="1046" grid="1" gridSize="10" guides="1" tooltips="1" connect="1" arrows="1" fold="1" page="1" pageScale="1" pageWidth="827" pageHeight="1169" math="0" shadow="0">
            <root>
                <mxCell id="0"/>
                <mxCell id="1" parent="0"/>
                <mxCell id="47" style="edgeStyle=none;html=1;exitX=0.5;exitY=1;exitDx=0;exitDy=0;" edge="1" parent="1" source="27" target="34">
                    <mxGeometry relative="1" as="geometry"/>
                </mxCell>
                <mxCell id="27" value="" style="rounded=0;whiteSpace=wrap;html=1;" vertex="1" parent="1">
                    <mxGeometry x="-220" y="150" width="130" height="60" as="geometry"/>
                </mxCell>
                <mxCell id="2" value="Decode Event" style="rounded=0;whiteSpace=wrap;html=1;fillColor=#dae8fc;strokeColor=#6c8ebf;" vertex="1" parent="1">
                    <mxGeometry x="-22" y="570" width="80" height="30" as="geometry"/>
                </mxCell>
                <mxCell id="3" value="Prefill Event" style="rounded=0;whiteSpace=wrap;html=1;fillColor=#e1d5e7;strokeColor=#9673a6;" vertex="1" parent="1">
                    <mxGeometry x="-22" y="376" width="80" height="30" as="geometry"/>
                </mxCell>
                <mxCell id="5" value="Scheduler&lt;div&gt;Event&lt;/div&gt;" style="rounded=0;whiteSpace=wrap;html=1;fillColor=#fff2cc;strokeColor=#d6b656;" vertex="1" parent="1">
                    <mxGeometry x="-22" y="160" width="80" height="40" as="geometry"/>
                </mxCell>
                <mxCell id="6" value="Input Requests" style="shape=document;whiteSpace=wrap;html=1;boundedLbl=1;size=0.25;" vertex="1" parent="1">
                    <mxGeometry x="208" y="160" width="70" height="40" as="geometry"/>
                </mxCell>
                <mxCell id="7" value="Task Pool" style="shape=cylinder3;whiteSpace=wrap;html=1;boundedLbl=1;backgroundOutline=1;size=5;" vertex="1" parent="1">
                    <mxGeometry x="213" y="330" width="60" height="50" as="geometry"/>
                </mxCell>
                <mxCell id="8" value="" style="rounded=0;whiteSpace=wrap;html=1;" vertex="1" parent="1">
                    <mxGeometry x="-85" y="645" width="385" height="20" as="geometry"/>
                </mxCell>
                <mxCell id="9" value="S" style="rounded=0;whiteSpace=wrap;html=1;fillColor=#fff2cc;strokeColor=#d6b656;" vertex="1" parent="1">
                    <mxGeometry x="-85" y="645" width="25" height="20" as="geometry"/>
                </mxCell>
                <mxCell id="10" value="P" style="rounded=0;whiteSpace=wrap;html=1;fillColor=#e1d5e7;strokeColor=#9673a6;" vertex="1" parent="1">
                    <mxGeometry x="-50" y="645" width="20" height="20" as="geometry"/>
                </mxCell>
                <mxCell id="11" value="D" style="rounded=0;whiteSpace=wrap;html=1;fillColor=#dae8fc;strokeColor=#6c8ebf;" vertex="1" parent="1">
                    <mxGeometry x="-20" y="645" width="20" height="20" as="geometry"/>
                </mxCell>
                <mxCell id="12" value="P" style="rounded=0;whiteSpace=wrap;html=1;fillColor=#e1d5e7;strokeColor=#9673a6;" vertex="1" parent="1">
                    <mxGeometry x="10" y="645" width="20" height="20" as="geometry"/>
                </mxCell>
                <mxCell id="13" value="D" style="rounded=0;whiteSpace=wrap;html=1;fillColor=#dae8fc;strokeColor=#6c8ebf;" vertex="1" parent="1">
                    <mxGeometry x="100" y="645" width="20" height="20" as="geometry"/>
                </mxCell>
                <mxCell id="14" value="D" style="rounded=0;whiteSpace=wrap;html=1;fillColor=#dae8fc;strokeColor=#6c8ebf;" vertex="1" parent="1">
                    <mxGeometry x="70" y="645" width="20" height="20" as="geometry"/>
                </mxCell>
                <mxCell id="15" value="D" style="rounded=0;whiteSpace=wrap;html=1;fillColor=#dae8fc;strokeColor=#6c8ebf;" vertex="1" parent="1">
                    <mxGeometry x="40" y="645" width="20" height="20" as="geometry"/>
                </mxCell>
                <mxCell id="17" value="" style="edgeStyle=elbowEdgeStyle;elbow=horizontal;endArrow=classic;html=1;curved=0;rounded=0;endSize=8;startSize=8;exitX=1;exitY=0.5;exitDx=0;exitDy=0;entryX=0;entryY=0.5;entryDx=0;entryDy=0;" edge="1" parent="1" source="5" target="6">
                    <mxGeometry width="50" height="50" relative="1" as="geometry">
                        <mxPoint x="448" y="340" as="sourcePoint"/>
                        <mxPoint x="498" y="290" as="targetPoint"/>
                        <Array as="points">
                            <mxPoint x="98" y="170"/>
                        </Array>
                    </mxGeometry>
                </mxCell>
                <mxCell id="18" value="&lt;b&gt;1. Check request&lt;/b&gt;&lt;div&gt;before current&amp;nbsp;&lt;/div&gt;&lt;div&gt;timestamp&lt;/div&gt;" style="edgeLabel;html=1;align=center;verticalAlign=middle;resizable=0;points=[];labelBackgroundColor=light-dark(#fff2cc, #ededed);" vertex="1" connectable="0" parent="17">
                    <mxGeometry x="0.0847" y="1" relative="1" as="geometry">
                        <mxPoint x="-7" y="1" as="offset"/>
                    </mxGeometry>
                </mxCell>
                <mxCell id="20" value="" style="edgeStyle=elbowEdgeStyle;elbow=vertical;endArrow=classic;html=1;curved=0;rounded=0;endSize=8;startSize=8;exitX=0.514;exitY=0.9;exitDx=0;exitDy=0;entryX=0.5;entryY=0;entryDx=0;entryDy=0;entryPerimeter=0;exitPerimeter=0;" edge="1" parent="1" source="6" target="7">
                    <mxGeometry width="50" height="50" relative="1" as="geometry">
                        <mxPoint x="213" y="470" as="sourcePoint"/>
                        <mxPoint x="218" y="270" as="targetPoint"/>
                        <Array as="points">
                            <mxPoint x="248" y="300"/>
                        </Array>
                    </mxGeometry>
                </mxCell>
                <mxCell id="21" value="&lt;b&gt;2.&amp;nbsp; Add prefill task&lt;/b&gt;&lt;div&gt;from requests&lt;/div&gt;" style="edgeLabel;html=1;align=center;verticalAlign=middle;resizable=0;points=[];labelBackgroundColor=light-dark(#fff2cc, #ededed);" vertex="1" connectable="0" parent="20">
                    <mxGeometry x="0.0847" y="1" relative="1" as="geometry">
                        <mxPoint y="-7" as="offset"/>
                    </mxGeometry>
                </mxCell>
                <mxCell id="22" value="" style="edgeStyle=elbowEdgeStyle;elbow=horizontal;endArrow=classic;html=1;curved=0;rounded=0;endSize=8;startSize=8;exitX=0;exitY=0;exitDx=0;exitDy=15;exitPerimeter=0;" edge="1" parent="1" source="7">
                    <mxGeometry width="50" height="50" relative="1" as="geometry">
                        <mxPoint x="115" y="380" as="sourcePoint"/>
                        <mxPoint x="-90" y="280" as="targetPoint"/>
                        <Array as="points">
                            <mxPoint x="140" y="330"/>
                        </Array>
                    </mxGeometry>
                </mxCell>
                <mxCell id="23" value="&lt;b&gt;3. Batch tasks&lt;/b&gt;&lt;div&gt;&lt;b&gt;and create&amp;nbsp;&lt;/b&gt;&lt;/div&gt;&lt;div&gt;&lt;b&gt;Prefill/Decode&lt;/b&gt;&lt;/div&gt;&lt;div&gt;&lt;b&gt;events&lt;/b&gt;&lt;/div&gt;&lt;div&gt;&lt;b&gt;to Event Graph&lt;/b&gt;&lt;/div&gt;" style="edgeLabel;html=1;align=center;verticalAlign=middle;resizable=0;points=[];labelBackgroundColor=light-dark(#fff2cc, #ededed);" vertex="1" connectable="0" parent="22">
                    <mxGeometry x="0.0847" y="1" relative="1" as="geometry">
                        <mxPoint x="2" y="-1" as="offset"/>
                    </mxGeometry>
                </mxCell>
                <mxCell id="24" value="Complete event trace" style="text;html=1;align=center;verticalAlign=middle;resizable=0;points=[];autosize=1;strokeColor=none;fillColor=none;" vertex="1" parent="1">
                    <mxGeometry x="-240" y="640" width="140" height="30" as="geometry"/>
                </mxCell>
                <mxCell id="25" value="S" style="rounded=0;whiteSpace=wrap;html=1;fillColor=#fff2cc;strokeColor=#d6b656;" vertex="1" parent="1">
                    <mxGeometry x="-210" y="180" width="25" height="20" as="geometry"/>
                </mxCell>
                <mxCell id="29" value="Event Graph" style="text;html=1;align=center;verticalAlign=middle;resizable=0;points=[];autosize=1;strokeColor=none;fillColor=none;" vertex="1" parent="1">
                    <mxGeometry x="-200" y="150" width="90" height="30" as="geometry"/>
                </mxCell>
                <mxCell id="30" value="" style="endArrow=none;dashed=1;html=1;dashPattern=1 3;strokeWidth=2;exitX=1;exitY=0.5;exitDx=0;exitDy=0;" edge="1" parent="1" source="25" target="5">
                    <mxGeometry width="50" height="50" relative="1" as="geometry">
                        <mxPoint x="340" y="340" as="sourcePoint"/>
                        <mxPoint x="390" y="290" as="targetPoint"/>
                    </mxGeometry>
                </mxCell>
                <mxCell id="44" value="Ready to execute" style="edgeLabel;html=1;align=center;verticalAlign=middle;resizable=0;points=[];fontSize=9;" vertex="1" connectable="0" parent="30">
                    <mxGeometry x="-0.1851" relative="1" as="geometry">
                        <mxPoint x="7" y="-4" as="offset"/>
                    </mxGeometry>
                </mxCell>
                <mxCell id="34" value="" style="rounded=0;whiteSpace=wrap;html=1;" vertex="1" parent="1">
                    <mxGeometry x="-220" y="250" width="130" height="60" as="geometry"/>
                </mxCell>
                <mxCell id="35" value="S" style="rounded=0;whiteSpace=wrap;html=1;fillColor=#f5f5f5;strokeColor=#666666;fontColor=#333333;" vertex="1" parent="1">
                    <mxGeometry x="-210" y="280" width="25" height="20" as="geometry"/>
                </mxCell>
                <mxCell id="36" value="Event Graph" style="text;html=1;align=center;verticalAlign=middle;resizable=0;points=[];autosize=1;strokeColor=none;fillColor=none;" vertex="1" parent="1">
                    <mxGeometry x="-200" y="250" width="90" height="30" as="geometry"/>
                </mxCell>
                <mxCell id="38" value="P" style="rounded=0;whiteSpace=wrap;html=1;fillColor=#e1d5e7;strokeColor=#9673a6;" vertex="1" parent="1">
                    <mxGeometry x="-170" y="280" width="20" height="20" as="geometry"/>
                </mxCell>
                <mxCell id="39" value="S" style="rounded=0;whiteSpace=wrap;html=1;fillColor=#fff2cc;strokeColor=#d6b656;" vertex="1" parent="1">
                    <mxGeometry x="-135" y="280" width="25" height="20" as="geometry"/>
                </mxCell>
                <mxCell id="40" value="" style="endArrow=classic;html=1;exitX=1;exitY=0.5;exitDx=0;exitDy=0;strokeWidth=0.5;" edge="1" parent="1" source="35">
                    <mxGeometry width="50" height="50" relative="1" as="geometry">
                        <mxPoint x="220" y="340" as="sourcePoint"/>
                        <mxPoint x="-170" y="290" as="targetPoint"/>
                        <Array as="points"/>
                    </mxGeometry>
                </mxCell>
                <mxCell id="41" value="" style="endArrow=classic;html=1;exitX=1;exitY=0.5;exitDx=0;exitDy=0;strokeWidth=0.5;entryX=0;entryY=0.5;entryDx=0;entryDy=0;" edge="1" parent="1" source="38" target="39">
                    <mxGeometry width="50" height="50" relative="1" as="geometry">
                        <mxPoint x="-175" y="300" as="sourcePoint"/>
                        <mxPoint x="-160" y="300" as="targetPoint"/>
                        <Array as="points"/>
                    </mxGeometry>
                </mxCell>
                <mxCell id="43" value="" style="endArrow=none;dashed=1;html=1;dashPattern=1 3;strokeWidth=2;" edge="1" parent="1" source="38" target="3">
                    <mxGeometry width="50" height="50" relative="1" as="geometry">
                        <mxPoint x="-175" y="200" as="sourcePoint"/>
                        <mxPoint x="-70" y="193" as="targetPoint"/>
                    </mxGeometry>
                </mxCell>
                <mxCell id="45" value="&lt;span style=&quot;color: rgb(0, 0, 0); font-size: 9px;&quot;&gt;Ready to execute&lt;/span&gt;" style="edgeLabel;html=1;align=center;verticalAlign=middle;resizable=0;points=[];" vertex="1" connectable="0" parent="43">
                    <mxGeometry x="0.122" y="4" relative="1" as="geometry">
                        <mxPoint as="offset"/>
                    </mxGeometry>
                </mxCell>
                <mxCell id="48" value="" style="edgeStyle=none;orthogonalLoop=1;jettySize=auto;html=1;" edge="1" parent="1">
                    <mxGeometry width="100" relative="1" as="geometry">
                        <mxPoint x="-231" y="150" as="sourcePoint"/>
                        <mxPoint x="-230" y="620" as="targetPoint"/>
                        <Array as="points"/>
                    </mxGeometry>
                </mxCell>
                <mxCell id="49" value="Timeline" style="edgeLabel;html=1;align=center;verticalAlign=middle;resizable=0;points=[];rotation=-90;" vertex="1" connectable="0" parent="48">
                    <mxGeometry x="0.0018" y="-1" relative="1" as="geometry">
                        <mxPoint as="offset"/>
                    </mxGeometry>
                </mxCell>
                <mxCell id="50" value="" style="edgeStyle=elbowEdgeStyle;elbow=horizontal;endArrow=classic;html=1;curved=0;rounded=0;endSize=8;startSize=8;entryX=0;entryY=0.5;entryDx=0;entryDy=0;entryPerimeter=0;exitX=1;exitY=0.5;exitDx=0;exitDy=0;" edge="1" parent="1" source="3" target="7">
                    <mxGeometry width="50" height="50" relative="1" as="geometry">
                        <mxPoint x="60" y="385" as="sourcePoint"/>
                        <mxPoint x="-80" y="290" as="targetPoint"/>
                        <Array as="points">
                            <mxPoint x="120" y="380"/>
                        </Array>
                    </mxGeometry>
                </mxCell>
                <mxCell id="51" value="&lt;b&gt;2. Add decode&amp;nbsp;&lt;/b&gt;&lt;div&gt;&lt;b&gt;tasks&lt;/b&gt;&lt;/div&gt;&lt;div&gt;from prefill event&lt;/div&gt;" style="edgeLabel;html=1;align=center;verticalAlign=middle;resizable=0;points=[];labelBackgroundColor=light-dark(#e1d5e7, #ededed);" vertex="1" connectable="0" parent="50">
                    <mxGeometry x="0.0847" y="1" relative="1" as="geometry">
                        <mxPoint x="-9" y="32" as="offset"/>
                    </mxGeometry>
                </mxCell>
                <mxCell id="52" value="" style="rounded=0;whiteSpace=wrap;html=1;" vertex="1" parent="1">
                    <mxGeometry x="-220" y="420" width="130" height="60" as="geometry"/>
                </mxCell>
                <mxCell id="53" value="S" style="rounded=0;whiteSpace=wrap;html=1;fillColor=#f5f5f5;strokeColor=#666666;fontColor=#333333;" vertex="1" parent="1">
                    <mxGeometry x="-210" y="450" width="25" height="20" as="geometry"/>
                </mxCell>
                <mxCell id="54" value="Event Graph" style="text;html=1;align=center;verticalAlign=middle;resizable=0;points=[];autosize=1;strokeColor=none;fillColor=none;" vertex="1" parent="1">
                    <mxGeometry x="-200" y="420" width="90" height="30" as="geometry"/>
                </mxCell>
                <mxCell id="55" value="P" style="rounded=0;whiteSpace=wrap;html=1;fillColor=#f5f5f5;strokeColor=#666666;fontColor=#333333;" vertex="1" parent="1">
                    <mxGeometry x="-170" y="450" width="20" height="20" as="geometry"/>
                </mxCell>
                <mxCell id="56" value="S" style="rounded=0;whiteSpace=wrap;html=1;fillColor=#fff2cc;strokeColor=#d6b656;" vertex="1" parent="1">
                    <mxGeometry x="-135" y="450" width="25" height="20" as="geometry"/>
                </mxCell>
                <mxCell id="57" value="" style="endArrow=classic;html=1;exitX=1;exitY=0.5;exitDx=0;exitDy=0;strokeWidth=0.5;" edge="1" parent="1" source="53">
                    <mxGeometry width="50" height="50" relative="1" as="geometry">
                        <mxPoint x="220" y="510" as="sourcePoint"/>
                        <mxPoint x="-170" y="460" as="targetPoint"/>
                        <Array as="points"/>
                    </mxGeometry>
                </mxCell>
                <mxCell id="58" value="" style="endArrow=classic;html=1;exitX=1;exitY=0.5;exitDx=0;exitDy=0;strokeWidth=0.5;entryX=0;entryY=0.5;entryDx=0;entryDy=0;" edge="1" parent="1" source="55" target="56">
                    <mxGeometry width="50" height="50" relative="1" as="geometry">
                        <mxPoint x="-175" y="470" as="sourcePoint"/>
                        <mxPoint x="-160" y="470" as="targetPoint"/>
                        <Array as="points"/>
                    </mxGeometry>
                </mxCell>
                <mxCell id="60" value="" style="edgeStyle=elbowEdgeStyle;endArrow=classic;html=1;rounded=0;endSize=8;startSize=8;entryX=0.75;entryY=0;entryDx=0;entryDy=0;exitX=0.25;exitY=0;exitDx=0;exitDy=0;elbow=vertical;" edge="1" parent="1" source="3" target="3">
                    <mxGeometry width="50" height="50" relative="1" as="geometry">
                        <mxPoint x="-1.9999999999997726" y="346" as="sourcePoint"/>
                        <mxPoint x="38.00000000000023" y="346" as="targetPoint"/>
                        <Array as="points">
                            <mxPoint x="20" y="336"/>
                        </Array>
                    </mxGeometry>
                </mxCell>
                <mxCell id="61" value="&lt;b&gt;1. Simulate&lt;/b&gt;&lt;div&gt;time / memory&lt;/div&gt;" style="edgeLabel;html=1;align=center;verticalAlign=middle;resizable=0;points=[];labelBackgroundColor=light-dark(#e1d5e7, #ededed);" vertex="1" connectable="0" parent="60">
                    <mxGeometry x="0.0847" y="1" relative="1" as="geometry">
                        <mxPoint x="-4" y="4" as="offset"/>
                    </mxGeometry>
                </mxCell>
                <mxCell id="62" value="Scheduler&lt;div&gt;Event&lt;/div&gt;" style="rounded=0;whiteSpace=wrap;html=1;fillColor=#fff2cc;strokeColor=#d6b656;" vertex="1" parent="1">
                    <mxGeometry x="-22" y="440" width="80" height="40" as="geometry"/>
                </mxCell>
                <mxCell id="63" value="" style="endArrow=none;dashed=1;html=1;dashPattern=1 3;strokeWidth=2;" edge="1" parent="1" target="62" source="56">
                    <mxGeometry width="50" height="50" relative="1" as="geometry">
                        <mxPoint x="-185" y="470" as="sourcePoint"/>
                        <mxPoint x="390" y="570" as="targetPoint"/>
                    </mxGeometry>
                </mxCell>
                <mxCell id="64" value="Ready to execute" style="edgeLabel;html=1;align=center;verticalAlign=middle;resizable=0;points=[];fontSize=9;" vertex="1" connectable="0" parent="63">
                    <mxGeometry x="-0.1851" relative="1" as="geometry">
                        <mxPoint x="7" y="-4" as="offset"/>
                    </mxGeometry>
                </mxCell>
                <mxCell id="66" value="" style="edgeStyle=elbowEdgeStyle;elbow=horizontal;endArrow=classic;html=1;curved=0;rounded=0;endSize=8;startSize=8;entryX=1;entryY=0.5;entryDx=0;entryDy=0;" edge="1" parent="1" source="62" target="6">
                    <mxGeometry width="50" height="50" relative="1" as="geometry">
                        <mxPoint x="68" y="190" as="sourcePoint"/>
                        <mxPoint x="218" y="190" as="targetPoint"/>
                        <Array as="points">
                            <mxPoint x="300" y="320"/>
                        </Array>
                    </mxGeometry>
                </mxCell>
                <mxCell id="67" value="&lt;b&gt;1. Check request&lt;/b&gt;&lt;div&gt;before current&amp;nbsp;&lt;/div&gt;&lt;div&gt;timestamp&lt;/div&gt;" style="edgeLabel;html=1;align=center;verticalAlign=middle;resizable=0;points=[];labelBackgroundColor=light-dark(#fff2cc, #ededed);" vertex="1" connectable="0" parent="66">
                    <mxGeometry x="0.0847" y="1" relative="1" as="geometry">
                        <mxPoint x="-169" y="55" as="offset"/>
                    </mxGeometry>
                </mxCell>
                <mxCell id="75" value="" style="rounded=0;whiteSpace=wrap;html=1;" vertex="1" parent="1">
                    <mxGeometry x="-220" y="525" width="130" height="85" as="geometry"/>
                </mxCell>
                <mxCell id="76" value="S" style="rounded=0;whiteSpace=wrap;html=1;fillColor=#f5f5f5;strokeColor=#666666;fontColor=#333333;" vertex="1" parent="1">
                    <mxGeometry x="-210" y="555" width="25" height="20" as="geometry"/>
                </mxCell>
                <mxCell id="77" value="Event Graph" style="text;html=1;align=center;verticalAlign=middle;resizable=0;points=[];autosize=1;strokeColor=none;fillColor=none;" vertex="1" parent="1">
                    <mxGeometry x="-200" y="525" width="90" height="30" as="geometry"/>
                </mxCell>
                <mxCell id="78" value="P" style="rounded=0;whiteSpace=wrap;html=1;fillColor=#f5f5f5;strokeColor=#666666;fontColor=#333333;" vertex="1" parent="1">
                    <mxGeometry x="-170" y="555" width="20" height="20" as="geometry"/>
                </mxCell>
                <mxCell id="79" value="S" style="rounded=0;whiteSpace=wrap;html=1;fillColor=#f5f5f5;strokeColor=#666666;fontColor=#333333;" vertex="1" parent="1">
                    <mxGeometry x="-135" y="555" width="25" height="20" as="geometry"/>
                </mxCell>
                <mxCell id="80" value="" style="endArrow=classic;html=1;exitX=1;exitY=0.5;exitDx=0;exitDy=0;strokeWidth=0.5;" edge="1" parent="1" source="76">
                    <mxGeometry width="50" height="50" relative="1" as="geometry">
                        <mxPoint x="220" y="615" as="sourcePoint"/>
                        <mxPoint x="-170" y="565" as="targetPoint"/>
                        <Array as="points"/>
                    </mxGeometry>
                </mxCell>
                <mxCell id="81" value="" style="endArrow=classic;html=1;exitX=1;exitY=0.5;exitDx=0;exitDy=0;strokeWidth=0.5;entryX=0;entryY=0.5;entryDx=0;entryDy=0;" edge="1" parent="1" source="78" target="79">
                    <mxGeometry width="50" height="50" relative="1" as="geometry">
                        <mxPoint x="-175" y="575" as="sourcePoint"/>
                        <mxPoint x="-160" y="575" as="targetPoint"/>
                        <Array as="points"/>
                    </mxGeometry>
                </mxCell>
                <mxCell id="82" value="" style="edgeStyle=elbowEdgeStyle;elbow=horizontal;endArrow=classic;html=1;curved=0;rounded=0;endSize=8;startSize=8;entryX=1;entryY=0;entryDx=0;entryDy=0;exitX=0.5;exitY=1;exitDx=0;exitDy=0;exitPerimeter=0;" edge="1" parent="1" source="7" target="75">
                    <mxGeometry width="50" height="50" relative="1" as="geometry">
                        <mxPoint x="223" y="355" as="sourcePoint"/>
                        <mxPoint x="-80" y="290" as="targetPoint"/>
                        <Array as="points">
                            <mxPoint x="243" y="470"/>
                        </Array>
                    </mxGeometry>
                </mxCell>
                <mxCell id="83" value="&lt;b&gt;3. Batch tasks&lt;/b&gt;&lt;div&gt;&lt;b&gt;and create&amp;nbsp;&lt;/b&gt;&lt;/div&gt;&lt;div&gt;&lt;b&gt;Prefill/Decode&lt;/b&gt;&lt;/div&gt;&lt;div&gt;&lt;b&gt;events&lt;/b&gt;&lt;/div&gt;&lt;div&gt;&lt;b&gt;to Event Graph&lt;/b&gt;&lt;/div&gt;" style="edgeLabel;html=1;align=center;verticalAlign=middle;resizable=0;points=[];labelBackgroundColor=light-dark(#fff2cc, #ededed);" vertex="1" connectable="0" parent="82">
                    <mxGeometry x="0.0847" y="1" relative="1" as="geometry">
                        <mxPoint x="2" y="-1" as="offset"/>
                    </mxGeometry>
                </mxCell>
                <mxCell id="84" value="D" style="rounded=0;whiteSpace=wrap;html=1;fillColor=#dae8fc;strokeColor=#6c8ebf;" vertex="1" parent="1">
                    <mxGeometry x="-170" y="585" width="20" height="20" as="geometry"/>
                </mxCell>
                <mxCell id="85" value="S" style="rounded=0;whiteSpace=wrap;html=1;fillColor=#fff2cc;strokeColor=#d6b656;" vertex="1" parent="1">
                    <mxGeometry x="-135" y="585" width="25" height="20" as="geometry"/>
                </mxCell>
                <mxCell id="86" value="" style="endArrow=classic;html=1;exitX=0.5;exitY=1;exitDx=0;exitDy=0;strokeWidth=0.5;entryX=0.5;entryY=0;entryDx=0;entryDy=0;" edge="1" parent="1" source="79" target="84">
                    <mxGeometry width="50" height="50" relative="1" as="geometry">
                        <mxPoint x="-140" y="575" as="sourcePoint"/>
                        <mxPoint x="-125" y="575" as="targetPoint"/>
                        <Array as="points"/>
                    </mxGeometry>
                </mxCell>
                <mxCell id="87" value="" style="endArrow=classic;html=1;exitX=1;exitY=0.5;exitDx=0;exitDy=0;strokeWidth=0.5;entryX=0;entryY=0.5;entryDx=0;entryDy=0;" edge="1" parent="1" source="84" target="85">
                    <mxGeometry width="50" height="50" relative="1" as="geometry">
                        <mxPoint x="-119" y="585" as="sourcePoint"/>
                        <mxPoint x="-150" y="595" as="targetPoint"/>
                        <Array as="points"/>
                    </mxGeometry>
                </mxCell>
                <mxCell id="88" value="" style="endArrow=none;dashed=1;html=1;dashPattern=1 3;strokeWidth=2;" edge="1" parent="1" source="84" target="2">
                    <mxGeometry width="50" height="50" relative="1" as="geometry">
                        <mxPoint x="-140" y="306" as="sourcePoint"/>
                        <mxPoint x="2" y="386" as="targetPoint"/>
                    </mxGeometry>
                </mxCell>
                <mxCell id="89" value="&lt;span style=&quot;color: rgb(0, 0, 0); font-size: 9px;&quot;&gt;Ready to execute&lt;/span&gt;" style="edgeLabel;html=1;align=center;verticalAlign=middle;resizable=0;points=[];" vertex="1" connectable="0" parent="88">
                    <mxGeometry x="0.122" y="4" relative="1" as="geometry">
                        <mxPoint x="14" y="-1" as="offset"/>
                    </mxGeometry>
                </mxCell>
                <mxCell id="90" value="" style="edgeStyle=elbowEdgeStyle;endArrow=classic;html=1;rounded=0;endSize=8;startSize=8;entryX=0.75;entryY=0;entryDx=0;entryDy=0;exitX=0.25;exitY=0;exitDx=0;exitDy=0;elbow=vertical;" edge="1" parent="1">
                    <mxGeometry width="50" height="50" relative="1" as="geometry">
                        <mxPoint y="570" as="sourcePoint"/>
                        <mxPoint x="40" y="570" as="targetPoint"/>
                        <Array as="points">
                            <mxPoint x="22" y="530"/>
                        </Array>
                    </mxGeometry>
                </mxCell>
                <mxCell id="91" value="&lt;b&gt;1. Simulate&lt;/b&gt;&lt;div&gt;time / memory&lt;/div&gt;" style="edgeLabel;html=1;align=center;verticalAlign=middle;resizable=0;points=[];labelBackgroundColor=light-dark(#dae8fc, #ededed);" vertex="1" connectable="0" parent="90">
                    <mxGeometry x="0.0847" y="1" relative="1" as="geometry">
                        <mxPoint x="-4" y="11" as="offset"/>
                    </mxGeometry>
                </mxCell>
                <mxCell id="92" value="" style="edgeStyle=orthogonalEdgeStyle;elbow=horizontal;endArrow=classic;html=1;rounded=0;endSize=8;startSize=8;entryX=0.145;entryY=1;entryDx=0;entryDy=-1.45;entryPerimeter=0;" edge="1" parent="1" source="2" target="7">
                    <mxGeometry width="50" height="50" relative="1" as="geometry">
                        <mxPoint x="68" y="401" as="sourcePoint"/>
                        <mxPoint x="223" y="365" as="targetPoint"/>
                    </mxGeometry>
                </mxCell>
                <mxCell id="93" value="&lt;b&gt;2. Add decode&amp;nbsp;&lt;/b&gt;&lt;div&gt;&lt;b&gt;tasks&lt;/b&gt;&lt;/div&gt;&lt;div&gt;from decode event&lt;/div&gt;" style="edgeLabel;html=1;align=center;verticalAlign=middle;resizable=0;points=[];labelBackgroundColor=light-dark(#dae8fc, #ededed);" vertex="1" connectable="0" parent="92">
                    <mxGeometry x="0.0847" y="1" relative="1" as="geometry">
                        <mxPoint x="-3" y="34" as="offset"/>
                    </mxGeometry>
                </mxCell>
            </root>
        </mxGraphModel>
    </diagram>
</mxfile>